{"title":"Togetherness.S01.720p.BluRay.X264-REWARD [Season 1 One Complete]","uid":15599989,"size":9805722201,"categoryP":"video","categoryS":"hd___tv_shows","magnet":"?xt=urn:btih:3c78f298bb0854ca5786dc2bcbd4cec3a2dc48c3&amp;dn=Togetherness.S01.720p.BluRay.X264-REWARD+%5BSeason+1+One+Complete%5D&amp;tr=udp%3A%2F%2Ftracker.leechers-paradise.org%3A6969&amp;tr=udp%3A%2F%2Fzer0day.ch%3A1337&amp;tr=udp%3A%2F%2Fopen.demonii.com%3A1337&amp;tr=udp%3A%2F%2Ftracker.coppersurfer.tk%3A6969&amp;tr=udp%3A%2F%2Fexodus.desync.com%3A6969","seeders":4,"leechers":6,"uploader":"GoodFilms","files":26,"time":1471621495,"description":"http://www.imdb.com/title/tt3061830/\r\n\r\nVideo\r\nID                                       : 1\r\nFormat                                   : AVC\r\nFormat/Info                              : Advanced Video Codec\r\nFormat profile                           :   \r\nFormat settings, CABAC                   : Yes\r\nFormat settings, ReFrames                : 5 frames\r\nCodec ID                                 : V_MPEG4/ISO/AVC\r\nDuration                                 : 28mn 50s\r\nBit rate                                 : 5 714 Kbps\r\nWidth                                    : 1 280 pixels\r\nHeight                                   : 720 pixels\r\nDisplay aspect ratio                     : 16:9\r\nFrame rate mode                          : Constant\r\nFrame rate                               : 23.976 (24000/1001) fps\r\nColor space                              : YUV\r\nChroma subsampling                       : 4:2:0\r\nBit depth                                : 8 bits\r\nScan type                                : Progressive\r\nBits/(Pixel*Frame)                       : 0.259\r\nStream size                              : 1.12 GiB (77%)\r\nWriting library                          : x264 core 148 r2665 a01e339\r\nLanguage                                 : English\r\nDefault                                  : Yes\r\nForced                                   : No\r\nStatistics Tags Issue                    : no_variable_data 1970-01-01 00:00:00 / no_variable_data 2010-02-22 21:41:29\r\nFromStats_BitRate                        : 5711567\r\nFromStats_Duration                       : 00:28:47.768000000\r\nFromStats_FrameCount                     : 41425\r\nFromStats_StreamSize                     : 1233533027\r\n\r\nAudio\r\nID                                       : 2\r\nFormat                                   : DTS\r\nFormat/Info                              : Digital Theater Systems\r\nMode                                     : 16\r\nFormat settings, Endianness              : Big\r\nCodec ID                                 : A_DTS\r\nDuration                                 : 28mn 50s\r\nBit rate mode                            : Constant\r\nBit rate                                 : 1 509 Kbps\r\nChannel(s)                               : 6 channels\r\nChannel positions                        : Front: L C R, Side: L R, LFE\r\nSampling rate                            : 48.0 KHz\r\nFrame rate                               : 93.750 fps (512 spf)\r\nBit depth                                : 24 bits\r\nCompression mode                         : Lossy\r\nStream size                              : 311 MiB (21%)\r\nLanguage                                 : English\r\nDefault                                  : Yes\r\nForced                                   : No\r\nStatistics Tags Issue                    : no_variable_data 1970-01-01 00:00:00 / no_variable_data 2010-02-22 21:41:29\r\nFromStats_BitRate                        : 1509000\r\nFromStats_Duration                       : 00:28:50.528000000\r\nFromStats_FrameCount                     : 162237\r\nFromStats_StreamSize                     : 326420844\r\n\r\nText #1\r\nID                                       : 3\r\nFormat                                   : UTF-8\r\nCodec ID                                 : S_TEXT/UTF8\r\nCodec ID/Info                            : UTF-8 Plain Text\r\nLanguage                                 : English\r\nDefault                                  : No\r\nForced                                   : No\r\nStatistics Tags Issue                    : no_variable_data 1970-01-01 00:00:00 / no_variable_data 2010-02-22 21:41:29\r\nFromStats_BitRate                        : 73\r\nFromStats_Duration                       : 00:23:15.810000000\r\nFromStats_FrameCount                     : 370\r\nFromStats_StreamSize                     : 12804\r\n\r\nText #2\r\nID                                       : 4\r\nFormat                                   : UTF-8\r\nCodec ID                                 : S_TEXT/UTF8\r\nCodec ID/Info                            : UTF-8 Plain Text\r\nTitle                                    : SDH\r\nLanguage                                 : English\r\nDefault                                  : No\r\nForced                                   : No\r\nStatistics Tags Issue                    : no_variable_data 1970-01-01 00:00:00 / no_variable_data 2010-02-22 21:41:29\r\nFromStats_BitRate                        : 77\r\nFromStats_Duration                       : 00:23:15.810000000\r\nFromStats_FrameCount                     : 393\r\nFromStats_StreamSize                     : 13608\r\n\r\nMenu\r\n00:00:00.000                             : en:00:00:00.000\r\n00:05:51.560                             : en:00:05:51.560\r\n00:11:53.922                             : en:00:11:53.922\r\n00:17:32.969                             : en:00:17:32.969\r\n00:23:00.921                             : en:00:23:00.921\r\n00:27:24.268                             : en:00:27:24.268","torrent":{"xt":"urn:btih:3c78f298bb0854ca5786dc2bcbd4cec3a2dc48c3","amp;dn":"Togetherness.S01.720p.BluRay.X264-REWARD+%5BSeason+1+One+Complete%5D","amp;tr":["udp%3A%2F%2Ftracker.leechers-paradise.org%3A6969","udp%3A%2F%2Fzer0day.ch%3A1337","udp%3A%2F%2Fopen.demonii.com%3A1337","udp%3A%2F%2Ftracker.coppersurfer.tk%3A6969","udp%3A%2F%2Fexodus.desync.com%3A6969"],"infoHash":"3c78f298bb0854ca5786dc2bcbd4cec3a2dc48c3","infoHashBuffer":{"type":"Buffer","data":[60,120,242,152,187,8,84,202,87,134,220,43,203,212,206,195,162,220,72,195]},"announce":[],"urlList":[]}}